<svg height="300" width="300" xmlns="http://www.w3.org/2000/svg"><path d="m300 150a150 150 0 1 1 -300 0 150 150 0 1 1 300 0z" fill="#eb4823"/><path d="m149 83c-20.987 0-38 17.013-38 38v54c0 4.971-4.029 9-9 9-4.9706 0-9-4.029-9-9v-24h-29v25c0 20.987 17.0132 38 38 38 20.987 0 38-17.013 38-38v-55c0-4.971 4.029-9 9-9s9 4.029 9 9v11l12 5.5 17-5.5v-11c0-20.987-17.013-38-38-38zm9 68.5v24.5c0 20.987 17.013 38 38 38s38-17.013 38-38v-24h-29v24c0 4.971-4.029 9-9 9s-9-4.029-9-9v-24.5l-17 5.5z" fill="#fff"/></svg>